<svg width="128" height="128" viewBox="0 0 128 128" fill="none" xmlns="http://www.w3.org/2000/svg">
<path d="M0 24.6519C0 11.037 11.037 0 24.6519 0H103.348C116.963 0 128 11.037 128 24.6519V103.348C128 116.963 116.963 128 103.348 128H24.6519C11.037 128 0 116.963 0 103.348V24.6519Z" fill="white"/>
<path fill-rule="evenodd" clip-rule="evenodd" d="M103.348 2.37037H24.6519C12.3461 2.37037 2.37037 12.3461 2.37037 24.6519V103.348C2.37037 115.654 12.3461 125.63 24.6519 125.63H103.348C115.654 125.63 125.63 115.654 125.63 103.348V24.6519C125.63 12.3461 115.654 2.37037 103.348 2.37037ZM24.6519 0C11.037 0 0 11.037 0 24.6519V103.348C0 116.963 11.037 128 24.6519 128H103.348C116.963 128 128 116.963 128 103.348V24.6519C128 11.037 116.963 0 103.348 0H24.6519Z" fill="#961D4E"/>
<path d="M94.1717 43.5429C94.1717 42.3324 93.1904 41.3511 91.9799 41.3511C90.7694 41.3511 89.7881 42.3324 89.7881 43.5429V84.4566C89.7881 85.6671 90.7694 86.6484 91.9799 86.6484C93.1904 86.6484 94.1717 85.6671 94.1717 84.4566V43.5429Z" fill="#961D4E"/>
<path d="M76.3737 71.7368C81.5957 68.3646 81.5957 59.6354 76.3737 56.2631L44.8439 35.9024C39.7687 32.625 33.5317 36.8908 33.5317 43.6393V84.3607C33.5317 91.1091 39.7687 95.375 44.8439 92.0975L76.3737 71.7368Z" fill="#961D4E"/>
</svg>
